<?xml version="1.0" standalone="no"?>
<!DOCTYPE svg PUBLIC "-//W3C//DTD SVG 20010904//EN"
 "http://www.w3.org/TR/2001/REC-SVG-20010904/DTD/svg10.dtd">
<svg version="1.0" xmlns="http://www.w3.org/2000/svg"
 width="152.000000pt" height="152.000000pt" viewBox="0 0 152.000000 152.000000"
 preserveAspectRatio="xMidYMid meet">
<metadata>
Created by potrace 1.14, written by Peter Selinger 2001-2017
</metadata>
<g transform="translate(0.000000,152.000000) scale(0.100000,-0.100000)"
fill="#000000" stroke="none">
<path d="M1013 1083 c-7 -3 -13 -13 -13 -23 0 -12 10 -20 33 -24 57 -11 71
-38 111 -206 20 -85 36 -161 36 -167 0 -28 -28 -10 -38 25 -20 67 -105 131
-173 132 -35 0 -88 -19 -119 -42 -30 -23 -70 -86 -70 -110 0 -36 -29 -16 -53
36 -47 103 -162 145 -257 94 -48 -26 -88 -76 -97 -120 -6 -28 -33 -40 -33 -14
0 26 70 311 82 334 8 15 28 27 55 35 30 8 43 16 43 29 0 14 -8 18 -39 18 -41
0 -83 -25 -102 -62 -10 -19 -99 -376 -99 -398 0 -5 19 -10 42 -12 36 -3 43 -7
51 -33 13 -42 54 -93 91 -116 38 -23 134 -26 174 -5 41 21 82 69 97 112 16 48
35 50 49 6 16 -47 63 -102 102 -118 69 -29 169 -9 216 43 10 10 26 40 38 65
18 41 23 46 48 43 58 -7 58 -1 13 191 -49 208 -55 225 -86 254 -24 22 -80 40
-102 33z m-363 -348 c59 -56 64 -147 12 -203 -87 -93 -233 -43 -249 86 -5 48
21 99 67 130 50 34 128 27 170 -13z m380 17 c44 -22 72 -70 72 -127 2 -76 -59
-138 -134 -138 -62 0 -102 24 -128 78 -61 126 65 251 190 187z"/>
</g>
</svg>
