<svg width="616" height="747" viewBox="0 0 616 747" fill="none" xmlns="http://www.w3.org/2000/svg">
<path d="M80.2871 19.0667C80.5382 19.0667 80.7793 19.0667 81.0203 19.0667C80.802 18.6988 80.4898 18.3933 80.1146 18.1803C79.7394 17.9673 79.3142 17.8542 78.881 17.8522C78.4628 17.8519 78.0552 17.7233 77.7149 17.4843C77.3746 17.2454 77.1186 16.908 76.9827 16.5192C76.259 16.7245 75.5562 16.9955 74.8835 17.3289H75.0744C75.6071 17.3289 76.1181 17.5369 76.4948 17.9073C76.8715 18.2776 77.0832 18.7799 77.0832 19.3037C77.0881 19.399 77.0881 19.4946 77.0832 19.59C78.1091 19.2225 79.1954 19.0451 80.2871 19.0667Z" fill="white"/>
<path d="M97.7332 27.6472L92.5406 6.56621C92.179 4.24582 89.9291 0 83.9028 0C83.5033 0 83.1201 0.156044 82.8375 0.433804C82.555 0.711564 82.3962 1.08829 82.3962 1.4811C82.3962 1.87391 82.555 2.25063 82.8375 2.52839C83.1201 2.80615 83.5033 2.9622 83.9028 2.9622C88.7741 2.9622 89.4973 6.6452 89.5676 7.05003L94.3484 26.5018H92.2493C92.0321 24.805 91.4439 23.1744 90.525 21.7222C89.6061 20.2701 88.3783 19.0307 86.926 18.0892C86.4712 18.2774 86.0829 18.5932 85.8096 18.9971C85.5363 19.401 85.3901 19.8751 85.3893 20.3602C85.3948 20.4457 85.3948 20.5314 85.3893 20.6169C86.6107 21.4404 87.6131 22.5401 88.3122 23.8236C89.0113 25.1072 89.3867 26.537 89.4069 27.9928C89.4008 28.4894 89.3538 28.9847 89.2663 29.4739C88.9375 31.5714 87.8559 33.484 86.2173 34.8657C84.5786 36.2474 82.4911 37.007 80.3322 37.007C78.1734 37.007 76.0859 36.2474 74.4472 34.8657C72.8086 33.484 71.727 31.5714 71.3982 29.4739C71.3107 28.9847 71.2636 28.4894 71.2576 27.9928C71.2733 26.6229 71.5993 25.2737 72.2118 24.0432C71.7037 24.0081 71.2282 23.7847 70.8814 23.4181C70.5346 23.0515 70.3424 22.569 70.3436 22.0684C70.3453 21.889 70.277 21.7159 70.1528 21.5846C69.181 23.0752 68.5662 24.7633 68.3549 26.5215H66.4868C66.1663 23.6174 64.7658 20.9319 62.5542 18.9809C60.3427 17.0298 57.4759 15.9507 54.5044 15.9507C51.5329 15.9507 48.6662 17.0298 46.4546 18.9809C44.2431 20.9319 42.8426 23.6174 42.5221 26.5215H40.443L45.2339 7.05003C45.2942 6.6452 46.0475 2.9622 50.8987 2.9622C51.2983 2.9622 51.6815 2.80615 51.964 2.52839C52.2465 2.25063 52.4053 1.87391 52.4053 1.4811C52.4053 1.08829 52.2465 0.711564 51.964 0.433804C51.6815 0.156044 51.2983 0 50.8987 0C44.8724 0 42.6225 4.24582 42.261 6.56621L37.0582 27.6472C36.9939 27.8617 36.9827 28.0883 37.0256 28.308C37.0684 28.5277 37.1642 28.7341 37.3048 28.91C37.4453 29.0859 37.6267 29.2262 37.8337 29.3191C38.0406 29.4121 38.2672 29.455 38.4945 29.4443H42.5121C42.5938 30.055 42.7214 30.659 42.8937 31.2512C42.9572 31.1429 42.9917 31.0206 42.9942 30.8957C42.9942 30.372 43.2058 29.8697 43.5825 29.4993C43.9592 29.129 44.4702 28.9209 45.0029 28.9209C45.166 28.9231 45.3281 28.9463 45.485 28.99C45.4413 28.6461 45.4178 28.2999 45.4147 27.9533C45.4174 27.4569 45.4611 26.9616 45.5453 26.4722C45.8671 24.3679 46.9463 22.4469 48.5867 21.0586C50.2271 19.6702 52.3198 18.9066 54.4843 18.9066C56.6489 18.9066 58.7416 19.6702 60.382 21.0586C62.0224 22.4469 63.1016 24.3679 63.4234 26.4722C63.5076 26.9616 63.5513 27.4569 63.554 27.9533C63.5382 30.3054 62.5807 32.5567 60.8889 34.2199C59.1971 35.8831 56.907 36.8243 54.5145 36.8399C52.5563 36.8663 50.6424 36.2668 49.0607 35.1317C48.6982 35.4412 48.235 35.6128 47.755 35.6155C47.5569 35.6181 47.3679 35.6973 47.2288 35.8359C47.0897 35.9745 47.0117 36.1613 47.0117 36.356C47.009 36.6321 46.9474 36.9046 46.8309 37.1558C48.9797 38.9066 51.6835 39.8636 54.4743 39.8613C57.4223 39.8738 60.2728 38.8236 62.4864 36.9095C64.7 34.9953 66.1232 32.35 66.4868 29.4739H68.3147C68.6456 32.3691 70.0499 35.0431 72.2593 36.9848C74.4688 38.9266 77.3285 40 80.2921 40C83.2557 40 86.1154 38.9266 88.3248 36.9848C90.5343 35.0431 91.9385 32.3691 92.2694 29.4739H96.2869C96.5191 29.4904 96.7519 29.4503 96.9647 29.3573C97.1774 29.2642 97.3635 29.121 97.5065 28.9404C97.6495 28.7598 97.7451 28.5473 97.7846 28.3217C97.8241 28.0961 97.8065 27.8645 97.7332 27.6472Z" fill="white"/>
<path d="M87.9203 15.9169C87.3273 15.9182 86.7398 15.8045 86.1915 15.5822C85.6432 15.36 85.1448 15.0337 84.725 14.6219C84.3052 14.21 83.9721 13.7209 83.7448 13.1823C83.5176 12.6438 83.4006 12.0665 83.4006 11.4835C83.3979 12.6602 82.9206 13.7878 82.0733 14.619C81.2259 15.4501 80.0778 15.9169 78.8809 15.9169C80.0788 15.9195 81.2268 16.3885 82.0739 17.2212C82.9209 18.0539 83.3979 19.1825 83.4006 20.3602C83.4006 19.1817 83.8768 18.0516 84.7244 17.2183C85.572 16.385 86.7216 15.9169 87.9203 15.9169Z" fill="#D22856"/>
<path d="M75.0744 19.3826C74.3418 19.3826 73.6393 19.0966 73.1213 18.5873C72.6033 18.0781 72.3123 17.3875 72.3123 16.6673C72.3123 17.3857 72.0227 18.0749 71.5069 18.5839C70.9911 19.0928 70.2911 19.38 69.5603 19.3826C70.2902 19.3826 70.9902 19.6677 71.5063 20.1751C72.0224 20.6824 72.3123 21.3706 72.3123 22.0881C72.315 21.3697 72.6072 20.6816 73.1249 20.1745C73.6426 19.6674 74.3436 19.3826 75.0744 19.3826Z" fill="#D22856"/>
<path d="M47.785 33.6407C47.056 33.6355 46.3586 33.3471 45.8449 32.8384C45.3313 32.3298 45.043 31.6421 45.043 30.9253C45.043 31.6438 44.7534 32.333 44.2376 32.8419C43.7218 33.3508 43.0218 33.6381 42.291 33.6407C43.0218 33.6433 43.7218 33.9305 44.2376 34.4395C44.7534 34.9484 45.043 35.6376 45.043 36.356C45.043 35.6393 45.3313 34.9516 45.8449 34.4429C46.3586 33.9343 47.056 33.6459 47.785 33.6407Z" fill="#D22856"/>
<path d="M109.193 18.4249C109.193 18.0921 109.326 17.7726 109.562 17.5345C109.799 17.2965 110.12 17.1589 110.459 17.1511H117.67C122.783 17.1511 126.147 19.827 126.147 24.211V24.2703C126.147 29.069 122.069 31.5573 117.248 31.5573H111.754V38.2913C111.77 38.466 111.749 38.6421 111.692 38.8082C111.634 38.9743 111.543 39.1269 111.422 39.2563C111.302 39.3856 111.155 39.489 110.992 39.5596C110.829 39.6303 110.652 39.6668 110.474 39.6668C110.295 39.6668 110.119 39.6303 109.956 39.5596C109.792 39.489 109.646 39.3856 109.525 39.2563C109.405 39.1269 109.313 38.9743 109.256 38.8082C109.199 38.6421 109.178 38.466 109.193 38.2913V18.4249ZM117.349 29.2863C121.095 29.2863 123.556 27.3115 123.556 24.3493V24.29C123.556 21.1106 121.135 19.4616 117.53 19.4616H111.805V29.2468L117.349 29.2863Z" fill="white"/>
<path d="M131.019 18.2669C131.003 18.0922 131.024 17.9162 131.082 17.7501C131.139 17.5839 131.23 17.4313 131.351 17.302C131.471 17.1726 131.618 17.0693 131.781 16.9986C131.944 16.9279 132.121 16.8914 132.299 16.8914C132.478 16.8914 132.654 16.9279 132.817 16.9986C132.981 17.0693 133.127 17.1726 133.248 17.302C133.368 17.4313 133.46 17.5839 133.517 17.7501C133.574 17.9162 133.596 18.0922 133.58 18.2669V38.2913C133.596 38.466 133.574 38.642 133.517 38.8082C133.46 38.9743 133.368 39.1269 133.248 39.2563C133.127 39.3856 132.981 39.489 132.817 39.5596C132.654 39.6303 132.478 39.6668 132.299 39.6668C132.121 39.6668 131.944 39.6303 131.781 39.5596C131.618 39.489 131.471 39.3856 131.351 39.2563C131.23 39.1269 131.139 38.9743 131.082 38.8082C131.024 38.642 131.003 38.466 131.019 38.2913V18.2669Z" fill="white"/>
<path d="M140.199 18.2965C140.206 17.9699 140.343 17.6588 140.579 17.4287C140.815 17.1986 141.132 17.0673 141.464 17.0623H141.816C142.077 17.0675 142.332 17.1372 142.559 17.2649C142.785 17.3925 142.975 17.5741 143.111 17.7929L156.862 35.0231V18.2373C156.862 17.9125 156.993 17.6011 157.226 17.3715C157.46 17.1419 157.777 17.0129 158.107 17.0129C158.437 17.0129 158.754 17.1419 158.988 17.3715C159.221 17.6011 159.352 17.9125 159.352 18.2373V38.3308C159.358 38.4836 159.332 38.6359 159.275 38.7784C159.219 38.9209 159.134 39.0506 159.025 39.1596C158.916 39.2687 158.785 39.3547 158.641 39.4125C158.497 39.4704 158.343 39.4987 158.187 39.496H158.057C157.79 39.4779 157.531 39.3989 157.301 39.2652C157.071 39.1314 156.876 38.9468 156.731 38.7258L142.67 21.0908V38.3308C142.667 38.6491 142.541 38.9544 142.317 39.184C142.093 39.4135 141.788 39.5499 141.464 39.5651C141.136 39.5599 140.823 39.4272 140.593 39.1961C140.363 38.9649 140.236 38.6539 140.239 38.3308V18.2965H140.199Z" fill="white"/>
<path d="M165.74 18.2669C165.724 18.0922 165.746 17.9162 165.803 17.7501C165.86 17.5839 165.952 17.4313 166.072 17.302C166.193 17.1726 166.339 17.0693 166.503 16.9986C166.666 16.9279 166.842 16.8914 167.021 16.8914C167.199 16.8914 167.376 16.9279 167.539 16.9986C167.702 17.0693 167.849 17.1726 167.969 17.302C168.09 17.4313 168.181 17.5839 168.238 17.7501C168.296 17.9162 168.317 18.0922 168.301 18.2669V30.4415L181.198 17.4375C181.462 17.1684 181.822 17.0094 182.202 16.9931C182.531 17.0057 182.842 17.1418 183.072 17.3732C183.302 17.6046 183.433 17.9139 183.437 18.2373C183.43 18.4054 183.389 18.5706 183.317 18.7231C183.245 18.8756 183.142 19.0125 183.016 19.1259L174.98 26.9461L183.648 37.3731C183.875 37.631 184 37.9604 184 38.3012C183.996 38.472 183.958 38.6402 183.887 38.7964C183.817 38.9525 183.716 39.0934 183.59 39.2109C183.464 39.3284 183.315 39.4202 183.153 39.481C182.991 39.5418 182.818 39.5703 182.644 39.5651C182.442 39.557 182.245 39.5006 182.07 39.4008C181.895 39.3011 181.747 39.1609 181.64 38.9924L173.183 28.6346L168.301 33.4333V38.2716C168.301 38.4363 168.268 38.5993 168.204 38.7515C168.14 38.9036 168.046 39.0419 167.928 39.1583C167.809 39.2747 167.669 39.3671 167.514 39.4301C167.359 39.4932 167.193 39.5256 167.026 39.5256C166.858 39.5256 166.692 39.4932 166.538 39.4301C166.383 39.3671 166.242 39.2747 166.124 39.1583C166.005 39.0419 165.911 38.9036 165.847 38.7515C165.783 38.5993 165.75 38.4363 165.75 38.2716V18.2669H165.74Z" fill="white"/>
<path d="M135.94 9.74563C134.975 9.74563 134.049 9.36936 133.365 8.69932C132.682 8.02927 132.297 7.12014 132.294 6.17125C132.294 7.11923 131.911 8.02839 131.229 8.69872C130.547 9.36905 129.622 9.74563 128.658 9.74563C129.623 9.74825 130.548 10.127 131.23 10.7989C131.911 11.4708 132.294 12.381 132.294 13.3299C132.297 12.3801 132.682 11.4699 133.365 10.7983C134.048 10.1267 134.974 9.74824 135.94 9.74563V9.74563Z" fill="#D22856"/>
</svg>
