<svg width="96" height="66" viewBox="0 0 96 66" fill="none" xmlns="http://www.w3.org/2000/svg">
<path fill-rule="evenodd" clip-rule="evenodd" d="M87.6882 11.1741L95.8864 45.5796C96.0021 45.9342 96.0299 46.3123 95.9675 46.6805C95.9051 47.0486 95.7543 47.3955 95.5285 47.6903C95.3027 47.9851 95.0089 48.2187 94.673 48.3706C94.3371 48.5224 93.9696 48.5878 93.603 48.5609H87.0835C85.9603 58.0164 78.0194 65.3446 68.3902 65.3446C58.7611 65.3446 50.8202 58.0164 49.697 48.5609H46.4995C45.3752 58.126 37.3468 65.5424 27.6098 65.5424C17.8564 65.5424 9.81722 58.101 8.71437 48.5125H2.35955C2.00071 48.53 1.64297 48.46 1.3162 48.3083C0.989426 48.1566 0.703109 47.9277 0.481158 47.6406C0.259207 47.3535 0.108065 47.0167 0.0403562 46.6581C-0.0273532 46.2996 -0.00966499 45.9298 0.0919434 45.5796L8.30607 11.1741C8.87694 7.38707 12.429 0.457626 21.9434 0.457626C22.5743 0.457626 23.1793 0.7123 23.6254 1.16562C24.0714 1.61894 24.322 2.23378 24.322 2.87488C24.322 3.51597 24.0714 4.13081 23.6254 4.58413C23.1793 5.03745 22.5743 5.29212 21.9434 5.29212C14.2843 5.29212 13.095 11.303 12.9999 11.9637L5.43588 43.7425H8.74522C9.95941 34.2768 17.9425 26.9663 27.6098 26.9663C37.2717 26.9663 45.2513 34.2688 46.4723 43.7269L49.7226 43.7417C50.9359 34.386 58.8312 27.1641 68.3902 27.1641C77.9679 27.1641 85.8754 34.4141 87.0649 43.7964V43.7103H90.5425L82.9944 11.9637C82.8834 11.303 81.7416 5.29212 74.0508 5.29212C73.4199 5.29212 72.8149 5.03745 72.3689 4.58413C71.9228 4.13081 71.6722 3.51597 71.6722 2.87488C71.6722 2.23378 71.9228 1.61894 72.3689 1.16562C72.8149 0.7123 73.4199 0.457626 74.0508 0.457626C83.5652 0.457626 87.1173 7.38707 87.6882 11.1741ZM41.7718 48.5609C41.8899 47.8097 41.9512 47.0393 41.9512 46.2543C41.9512 45.3928 41.8773 44.5488 41.7356 43.7284C40.5562 36.9021 34.6806 31.7141 27.6098 31.7141C20.5348 31.7141 14.6563 36.9083 13.4818 43.7405C13.3415 44.5571 13.2683 45.3971 13.2683 46.2543C13.2683 47.0265 13.3277 47.7847 13.442 48.5243C14.517 55.4764 20.4508 60.7945 27.6098 60.7945C34.7561 60.7945 40.6817 55.4951 41.7718 48.5609ZM82.3546 48.5609C82.4744 47.81 82.5366 47.0395 82.5366 46.2543C82.5366 38.3333 76.2031 31.912 68.3902 31.912C60.5774 31.912 54.2439 38.3333 54.2439 46.2543C54.2439 47.0395 54.3061 47.81 54.4259 48.5609C55.5141 55.3854 61.3519 60.5967 68.3902 60.5967C75.4286 60.5967 81.2664 55.3854 82.3546 48.5609Z" fill="black"/>
</svg>
