<svg width="660" height="380" viewBox="0 0 660 380" fill="none" xmlns="http://www.w3.org/2000/svg">
<path d="M231.314 132.628L235.587 128.341C241.752 122.166 242.878 113.193 238.086 108.402C233.294 103.611 224.334 104.723 218.176 110.897L213.871 115.208C196.746 101.278 176.074 92.4187 154.187 89.6304V81.9603H160.305C169.019 81.9603 176.151 74.994 176.151 66.4842C176.151 57.9743 169.019 51 160.305 51H117.721C109.007 51 101.875 57.9663 101.875 66.4842C101.875 75.002 109.007 81.9603 117.721 81.9603H123.839V89.6304C97.6967 92.9933 73.4093 104.952 54.7872 123.631C36.1652 142.309 24.2622 166.651 20.9459 192.835C17.6296 219.02 23.0877 245.566 36.4638 268.309C49.8399 291.052 70.377 308.704 94.8528 318.496C119.329 328.288 146.358 329.665 171.7 322.412C197.042 315.16 219.263 299.687 234.875 278.421C250.488 257.156 258.609 231.302 257.964 204.915C257.32 178.529 247.946 153.103 231.314 132.628V132.628ZM139.013 295.947C121.61 295.947 104.598 290.779 90.1286 281.097C75.6589 271.414 64.3813 257.652 57.7219 241.551C51.0625 225.45 49.3205 207.733 52.7162 190.64C56.1119 173.547 64.4927 157.847 76.7989 145.524C89.105 133.201 104.784 124.81 121.852 121.411C138.921 118.012 156.613 119.758 172.69 126.429C188.768 133.099 202.509 144.394 212.176 158.885C221.844 173.377 227.003 190.413 227.001 207.841C226.999 231.209 217.728 253.619 201.227 270.142C184.726 286.665 162.348 295.947 139.013 295.947V295.947Z" fill="#DEDEDE"/>
<circle cx="139" cy="208" r="93" stroke="#D22856" stroke-width="16"/>
<path d="M135.906 242H88V231.922L105.203 214.531C110.297 209.312 113.625 205.703 115.188 203.703C116.75 201.672 117.875 199.797 118.562 198.078C119.25 196.359 119.594 194.578 119.594 192.734C119.594 189.984 118.828 187.938 117.297 186.594C115.797 185.25 113.781 184.578 111.25 184.578C108.594 184.578 106.016 185.188 103.516 186.406C101.016 187.625 98.4062 189.359 95.6875 191.609L87.8125 182.281C91.1875 179.406 93.9844 177.375 96.2031 176.188C98.4219 175 100.844 174.094 103.469 173.469C106.094 172.812 109.031 172.484 112.281 172.484C116.562 172.484 120.344 173.266 123.625 174.828C126.906 176.391 129.453 178.578 131.266 181.391C133.078 184.203 133.984 187.422 133.984 191.047C133.984 194.203 133.422 197.172 132.297 199.953C131.203 202.703 129.484 205.531 127.141 208.438C124.828 211.344 120.734 215.484 114.859 220.859L106.047 229.156V229.812H135.906V242ZM192.297 227.797H184.047V242H169.891V227.797H140.641V217.719L170.688 173.469H184.047V216.547H192.297V227.797ZM169.891 216.547V204.922C169.891 202.984 169.969 200.172 170.125 196.484C170.281 192.797 170.406 190.656 170.5 190.062H170.125C168.969 192.625 167.578 195.125 165.953 197.562L153.391 216.547H169.891Z" fill="#D22856"/>
</svg>
